<svg width="128" height="128" xmlns="http://www.w3.org/2000/svg" version="1.1" xml:space="preserve">
  <defs>
    <linearGradient id="Orange-yellow" x1="0" y1="0" x2="0" y2="100%" gradientUnits="userSpaceOnUse">
      <stop offset="0%" stop-color="#ffb700"/>
      <stop offset="100%" stop-color="#f7184c"/>
    </linearGradient>
  </defs>
  <style>
    .st0 {
      fill: url(#Orange-yellow);
      stroke: url(#Orange-yellow);
      stroke-width: 8;
      stroke-linecap: round;
      stroke-linejoin: round;
      stroke-miterlimit: 10;
    }
  </style>
  <g>
  <title>Layer 1</title>
    <path class="st0"
          d="m58.02861,30.93384c-18.14494,3.5501 -23.66732,9.07247 -27.21741,27.21741c-3.5501,-18.14494 -9.07247,-23.66732 -27.21741,-27.21741c18.14494,-3.5501 23.66732,-9.07247 27.21741,-27.21741c3.5501,18.14494 9.07247,23.66732 27.21741,27.21741z"
          id="svg_2"/>
    <path class="st0"
          d="m60.21261,106.72869c-11.66559,2.1873 -14.94654,5.8328 -17.49839,17.49839c-2.1873,-11.66559 -5.8328,-14.94654 -17.49839,-17.49839c11.66559,-2.1873 14.94654,-5.8328 17.49839,-17.49839c2.1873,11.66559 5.8328,15.31109 17.49839,17.49839z"
          id="svg_4"/>
    <path class="st0"
          d="m124.10917,68.58632c-26.83275,5.16014 -35.08898,13.41637 -40.24912,40.24912c-5.16014,-26.83275 -13.41637,-35.08898 -40.24912,-40.24912c26.83275,-5.16014 35.08898,-13.41637 40.24912,-40.24912c5.16014,26.83275 13.41637,35.08898 40.24912,40.24912z"
          id="svg_6"/>
 </g>

</svg>
